<?xml version="1.0" standalone="no"?>
<svg viewBox="0 0 200 200" xmlns="http://www.w3.org/2000/svg">
  <path fill="#9333EA" d="M26.7,-43.7C34.6,-36.5,40.8,-29,49.8,-19.7C58.8,-10.4,70.4,0.7,74.6,14.7C78.8,28.7,75.5,45.6,64.8,53.7C54,61.7,35.8,60.9,20.5,61.5C5.2,62.2,-7.1,64.3,-18.8,61.9C-30.4,59.4,-41.4,52.4,-51.7,43.2C-62,34.1,-71.8,22.9,-76.3,9.3C-80.8,-4.3,-80.1,-20.3,-71.8,-30.5C-63.6,-40.7,-47.8,-45.2,-34.5,-49.9C-21.3,-54.6,-10.6,-59.5,-0.6,-58.5C9.4,-57.6,18.8,-50.8,26.7,-43.7Z" transform="translate(100 100)" />
</svg>
